/* XPM */
static char *archiveinsertdirectory_[] = {
/* columns rows colors chars-per-pixel */
"16 16 246 2",
"   c #34782D",
".  c #327736",
"X  c #45725D",
"o  c #567D50",
"O  c #587D52",
"+  c #41893D",
"@  c #42953D",
"#  c #498B4D",
"$  c #499040",
"%  c #4CA143",
"&  c #59A855",
"*  c #57A05B",
"=  c #67906E",
"-  c #66937C",
";  c #5EA364",
":  c #66AE6E",
">  c #65B963",
",  c #7EAA8F",
"<  c #5F80A9",
"1  c #5C82A9",
"2  c #5A80AD",
"3  c #5B81AE",
"4  c #5982AE",
"5  c #5A83AF",
"6  c #4E82B2",
"7  c #5780B6",
"8  c #5E85B0",
"9  c #5E84B1",
"0  c #5289BF",
"q  c #5A8CBD",
"w  c #6280A6",
"e  c #6480A7",
"r  c #6C81A0",
"t  c #6181AA",
"y  c #6387A9",
"u  c #6681AE",
"i  c #5788C3",
"p  c #578BC5",
"a  c #578EC7",
"s  c #5B8DC0",
"d  c #5B8FC1",
"f  c #588DC3",
"g  c #5889C4",
"h  c #5B89C5",
"j  c #518DC9",
"k  c #568CC8",
"l  c #5C8EC9",
"z  c #588ECC",
"x  c #5090CD",
"c  c #5A92CF",
"v  c #568DD0",
"b  c #5296D5",
"n  c #5B96D2",
"m  c #799ECA",
"M  c #6394D6",
"N  c #699AD4",
"B  c #6A98D6",
"V  c #7299D0",
"C  c #759DD1",
"Z  c #729AD7",
"A  c #75A5D5",
"S  c #7DACD8",
"D  c #75A7E4",
"F  c #74A6E5",
"G  c #77A9E4",
"H  c #77ABE7",
"J  c #79ABE6",
"K  c #78AAE7",
"L  c #77A7E9",
"P  c #78A7ED",
"I  c #78AAE9",
"U  c #7CAEED",
"Y  c #76A6F0",
"T  c #77A7F1",
"R  c #78BAF6",
"E  c #8499B8",
"W  c #8EAABF",
"Q  c #92C2A8",
"!  c #95C7AA",
"~  c #B5D7B4",
"^  c #BCD9BA",
"/  c #C3FEBC",
"(  c #8CA2C9",
")  c #8CA5CE",
"_  c #8DACCB",
"`  c #99AECD",
"'  c #81A3D0",
"]  c #8AACD1",
"[  c #8CACD3",
"{  c #81AFEB",
"}  c #80ADEE",
"|  c #83B2E6",
" . c #84B2E6",
".. c #82B1E9",
"X. c #86B3EA",
"o. c #83B1EF",
"O. c #85B2ED",
"+. c #95BAE6",
"@. c #98BAE0",
"#. c #84B0F1",
"$. c #85B3F1",
"%. c #86B2F3",
"&. c #8AB6F3",
"*. c #8DB5F0",
"=. c #8DB7F3",
"-. c #8EB9F0",
";. c #8CBDF7",
":. c #80B5F9",
">. c #90B8F3",
",. c #94B9F0",
"<. c #97BFF0",
"1. c #93BBF6",
"2. c #93BEF5",
"3. c #9CC1CA",
"4. c #ADC8CF",
"5. c #BFCFC4",
"6. c #A0C4DC",
"7. c #BCCAD7",
"8. c #BFCBD9",
"9. c #9FC0EB",
"0. c #8CC3FB",
"q. c #89C1FC",
"w. c #8BC0FF",
"e. c #8FC0FF",
"r. c #8DC3FF",
"t. c #8DC4FD",
"y. c #8FCAFF",
"u. c #98C0F1",
"i. c #99C2F0",
"p. c #99C1F2",
"a. c #9AC2F3",
"s. c #9CC0F0",
"d. c #9CC1F6",
"f. c #97C6FA",
"g. c #93C1FD",
"h. c #90C2FD",
"j. c #92C2FF",
"k. c #91C4FD",
"l. c #92C4FF",
"z. c #96C7FF",
"x. c #9AC1FA",
"c. c #9DC5F9",
"v. c #91C8FF",
"b. c #91C9FF",
"n. c #95C8FF",
"m. c #97C8FF",
"M. c #96C9FF",
"N. c #97C9FF",
"B. c #98CAFF",
"V. c #A0CAE2",
"C. c #A0C1EE",
"Z. c #A7C4EE",
"A. c #A4C7EF",
"S. c #A8C3EE",
"D. c #AACBEA",
"F. c #ABD1E8",
"G. c #A9D3E9",
"H. c #B3D6EC",
"J. c #A2C4F4",
"K. c #A2C7F4",
"L. c #ACC7F2",
"P. c #A9CCF2",
"I. c #ABCDF2",
"U. c #A9CAF5",
"Y. c #AACBF6",
"T. c #A1C6FA",
"R. c #A3C9F8",
"E. c #ACCEFC",
"W. c #A5D1FF",
"Q. c #ABD6FF",
"!. c #B2D5F5",
"~. c #B0D3FD",
"^. c #B0D1FE",
"/. c #B1D3FF",
"(. c #B3DBFF",
"). c #B5D9FD",
"_. c #B4DDFF",
"`. c #B7DFFF",
"'. c #BBD9FF",
"]. c #BCDDFF",
"[. c #BCE1FB",
"{. c #C3CDCF",
"}. c #C4CAD6",
"|. c #C3CDD6",
" X c #C0CCD8",
".X c #C5CCDC",
"XX c #CFDFD2",
"oX c #CAD1D9",
"OX c #C2F9C2",
"+X c #CFEDD1",
"@X c #CAFFD9",
"#X c #C8FFDC",
"$X c #CAE9E1",
"%X c #CFF1E0",
"&X c #C9FBEF",
"*X c #DFF9EC",
"=X c #C0E1F2",
"-X c #CFE3FE",
";X c #CFF8F0",
":X c #CBF6FF",
">X c #CCF4FF",
",X c #D1FAF2",
"<X c #D0FEF4",
"1X c #D2FFFF",
"2X c #DAFCFF",
"3X c #DAFDFF",
"4X c #DBFFFF",
"5X c #E4F6EA",
"6X c #EDFFE8",
"7X c #EFFFED",
"8X c #F4FFEE",
"9X c #E5F5FF",
"0X c #E1FFFF",
"qX c #E2FFFF",
"wX c #E5FFFF",
"eX c #E6FFFF",
"rX c #E7FFFF",
"tX c #EFFFFF",
"yX c #F1F7F5",
"uX c #F2FFF4",
"iX c #F7FDF9",
"pX c #F3F8FE",
"aX c #F1FDFF",
"sX c azure",
"dX c #F1FFFF",
"fX c #F2FFFF",
"gX c #F4FFFF",
"hX c #F6FFFF",
"jX c #F7FFFF",
"kX c #FBFBFB",
"lX c #FAFFF8",
"zX c #FFFEF9",
"xX c #FFFFFB",
"cX c #F9FDFF",
"vX c #FAFDFF",
"bX c #F8FEFF",
"nX c #F8FFFF",
"mX c #FDFDFD",
"MX c #FEFCFD",
"NX c #FFFFFD",
"BX c #FCFDFF",
"VX c #FFFDFF",
"CX c #FDFEFF",
"ZX c #FCFFFF",
"AX c #FEFFFF",
"SX c gray100",
/* pixels */
"gXtXeXqXqXrXgXcXcXNXcXNXNXMXNXMX",
"dXr w < t t E 9XdXdXdXdXdXgXcXcX",
"eXu S.L.Z.Y.' 8 3 5 3 3 8 1 y qX",
"4X7 J.C.K.a.f.n.l.n.n.B.l.n.6 1X",
"x j f s q s 0 a l i h h a k z n ",
"b R y.t.0.b.l.r.h.z.g.g.z.q.R z ",
"n q.H D U L D K K K I P T T 1.M ",
"N ;.{ $.U $.%.#.|  . .{ O.#.&.B ",
"V x.1.=.-.2.=.>.,.+.D.>X:XG.u.Z ",
"C c.d.T.u.u.u.s.<.6.%XQ ! &XV.m ",
"A W.R.E.A.P.P.D.=X,X@X: : #X<X3.",
"S Q.~.^.~.).!.H.4X- # & > * , $X",
"@.U.'.].`.`.(.[.4XX . @ % + = 5X",
"-X` ( ) [ ] _ W 4.%XOX  @ / +X5X",
"pXoX}..X8.7.8.|.}.5.^ o o ~ XXyX",
"kXkXNXkXcXNXcXNXkXlX8X6X7XuXkXNX"
};
