/* XPM */
static char *appointmentnew_[] = {
/* columns rows colors chars-per-pixel */
"16 16 247 2",
"   c #6D6A63",
".  c #7A7977",
"X  c #71717D",
"o  c #817976",
"O  c #878264",
"+  c #919179",
"@  c #A29A76",
"#  c #A5A060",
"$  c #C0BB7B",
"%  c #D0D078",
"&  c #E0DB7F",
"*  c #757380",
"=  c #797681",
"-  c #787683",
";  c #7C7684",
":  c #7A7A86",
">  c #7F7985",
",  c #7D7987",
"<  c #7E7C87",
"1  c #7E7E86",
"2  c #7F7F87",
"3  c #7C7C88",
"4  c #7E7C89",
"5  c #7D8087",
"6  c #82828E",
"7  c #85888F",
"8  c #848391",
"9  c #878592",
"0  c #868992",
"q  c #888890",
"w  c #8A8A94",
"e  c #8C8A97",
"r  c #8D8D99",
"t  c #928C98",
"y  c #8E9196",
"u  c #909196",
"i  c #919098",
"p  c #97969E",
"a  c #9B969D",
"s  c #9E9A9B",
"d  c #A09C90",
"f  c #ABA281",
"g  c #B4AE8E",
"h  c #BFBE86",
"j  c #A6A69C",
"k  c #A9A19E",
"l  c #B1A99C",
"z  c #9B97A5",
"x  c #9D9EA0",
"c  c #9E9DA2",
"v  c #9898A4",
"b  c #9F9EA6",
"n  c #9B99AE",
"m  c #A29CA6",
"M  c #A29CA8",
"N  c #A19EA9",
"B  c #9DA0A5",
"V  c #A8A2A2",
"C  c #A4A1A8",
"Z  c #A4A5AA",
"A  c #A3A1AC",
"S  c #A4A2AF",
"D  c #A6A3AE",
"F  c #A8A7AF",
"G  c #AEADA8",
"H  c #ABABAD",
"J  c #B1AEA7",
"K  c #AFB0A8",
"L  c #BDBAAB",
"P  c #A9A7B2",
"I  c #AAACB9",
"U  c #B3ABB6",
"Y  c #B5AEB6",
"T  c #AEB1BA",
"R  c #B3B1B4",
"E  c #B6B4B9",
"W  c #BCBABB",
"Q  c #BBB8BF",
"!  c #B8BCBF",
"~  c #C3BB96",
"^  c #C4BFBC",
"/  c #C7C386",
"(  c #D0CB89",
")  c #DAD38B",
"_  c #CCCD94",
"`  c #CFC89A",
"'  c #DCD891",
"]  c #EEEB82",
"[  c #EFEA8E",
"{  c #F7F387",
"}  c #F3F18A",
"|  c #FAF68A",
" . c #EFEB90",
".. c #EEED91",
"X. c #F9F793",
"o. c #FEF991",
"O. c #FAF79A",
"+. c #FBFD9C",
"@. c #FFFF9D",
"#. c #C6C0A8",
"$. c #D0C9AC",
"%. c #DBD4A0",
"&. c #CBC4B2",
"*. c #C2C1BC",
"=. c #D4CDB0",
"-. c #D9D3BB",
";. c #EBE8A3",
":. c #EDE8A6",
">. c #EDEDAF",
",. c #FFFFAB",
"<. c #EDE9BC",
"1. c #FFFFB3",
"2. c #FDF9BA",
"3. c #BBBBC7",
"4. c #C4C5C7",
"5. c #C8C5C0",
"6. c #CDC8C2",
"7. c #CECEC6",
"8. c #C7C7C9",
"9. c #C4C1CC",
"0. c #C3C8CE",
"q. c #CED0CF",
"w. c #D6D0C4",
"e. c #D2D1CD",
"r. c #D3D2CD",
"t. c #C5C5D1",
"y. c #CBCAD2",
"u. c #CEC9D0",
"i. c #CCC9D2",
"p. c #C9CDD0",
"a. c #CCCCD4",
"s. c #CCCFD8",
"d. c #D0CFD5",
"f. c #D6D2D3",
"g. c #D4D5D0",
"h. c #D2D1D7",
"j. c #DDDCD7",
"k. c #D0D0D8",
"l. c #D3D0DB",
"z. c #D1D4DB",
"x. c #D7D5D8",
"c. c #D5D4DA",
"v. c #D4D2DF",
"b. c #D4D7DC",
"n. c #DAD5DB",
"m. c #D4DAD8",
"M. c #DADAD8",
"N. c #DBDDDA",
"B. c #D8DCDF",
"V. c #DDDFDE",
"C. c gray87",
"Z. c #E4DED2",
"A. c #E2DEDB",
"S. c #E1DDDC",
"D. c #DFE2DB",
"F. c #E8E1C7",
"G. c #F1EEC3",
"H. c #FFFAC0",
"J. c #F4F2CB",
"K. c #E3E1D5",
"L. c #E8E2D2",
"P. c #E0E3DC",
"I. c #E0E2DF",
"U. c #E2E3DE",
"Y. c #E4E4DC",
"T. c #E6E7DF",
"R. c #EBE3D8",
"E. c #EAE4D8",
"W. c #E8E5DE",
"Q. c #F1EBD5",
"!. c #F2ECD4",
"~. c #F3EDD7",
"^. c #FFFFD1",
"/. c #FFFCD2",
"(. c #F8F1DF",
"). c #FAF4DC",
"_. c #D5D2E5",
"`. c #DBD8E1",
"'. c #DAD9E1",
"]. c #DCDBE1",
"[. c #DDDAE3",
"{. c #DCDDE2",
"}. c #DDDEE2",
"|. c #DCDCE4",
" X c #DAD8ED",
".X c #E2DAE5",
"XX c #DEE1E8",
"oX c #E2E0E1",
"OX c #E4E3E1",
"+X c #E5E7E2",
"@X c #E0E1E5",
"#X c #E4E2E5",
"$X c #E5E3E6",
"%X c #E6E9E2",
"&X c #E8E9E3",
"*X c #EAE9E5",
"=X c #E4E1E8",
"-X c #E5E3E8",
";X c #E4E3EB",
":X c #E4E7EC",
">X c #E9E2EA",
",X c #E7E8ED",
"<X c #EEEDE9",
"1X c #EEEFEA",
"2X c #E8ECED",
"3X c #F2EEE3",
"4X c #F5EFE1",
"5X c #F6EFE5",
"6X c #F0EEEF",
"7X c #F5F2E1",
"8X c #F7F2EC",
"9X c #FAF6ED",
"0X c #FFFFEA",
"qX c #E2E4F0",
"wX c #EAE8F3",
"eX c #ECEBF1",
"rX c #EDEEF3",
"tX c #EFEEF3",
"yX c #EBEDFC",
"uX c #F0EEF1",
"iX c #F2F0F1",
"pX c #F3F1F2",
"aX c #F5F1F0",
"sX c #F4F8F7",
"dX c #F5F4F9",
"fX c #FFF7FF",
"gX c #F6FCFA",
"hX c #FBFAF8",
"jX c #FCFBF9",
"kX c #FDFCFA",
"lX c #FFFEFB",
"zX c #F9FAFE",
"xX c #FBFBFF",
"cX c #FFFBFF",
"vX c #F8FFFD",
"bX c #F9FFFD",
"nX c #FAFEFF",
"mX c gray99",
"MX c #FEFCFD",
"NX c #FFFEFC",
"BX c #FCFDFF",
"VX c #FFFDFF",
"CX c #FEFEFE",
"ZX c #FEFEFF",
"AX c #FFFEFF",
"SX c #FEFFFF",
"DX c gray100",
/* pixels */
"AXnXnXvXrXi.Y M n I 7.J.1.,./.0X",
"AXAXgXm.H s k V S u + h  .O.2.^.",
"xXAXk.s J &.=.-.S.K._ % ] | X.+.",
"xX.XA R w.$.%.` R.7X>...o.{ } @.",
"fXY C f.l ~ ) ( ~.4XG.:.[ ] [ H.",
">Xa E aXE.f # / !.5X!.<.:.@ @ (.",
"l.t 4.1X9X(.g O L W.4XL.<.^ o n.",
"t.q p.q.<X8XZ.d j r.*XA.*.*., _.",
"s.0 0.:XeXuX5.  J P.+XoXj.W :  X",
"XX7 T qXwX=X. G &X%XP.V.V.c 6 yX",
"AXZ r v.=X$X^ Y.T.D.N.@Xy.< P xX",
"AX8.4 z [.=XOXe.g.M.}.a.e - '.AX",
"AXoXD - t 9.[.d.c.}.3.6 * F $XjX",
"jXiXu.m > - q v p < X 3 A d.6XlX",
"AXAXaXc.3.c w 5 < y B ! }.rXAXAX",
"AXAXlXhXdX,X|.z.m.B.,XsXxXAXAXAX"
};
