/* XPM */
static char *usergray[] = {
/* columns rows colors chars-per-pixel */
"16 16 199 2",
"   c #5D3408",
".  c #4C331D",
"X  c #4B351E",
"o  c #5B3A17",
"O  c #713E0F",
"+  c #623E1C",
"@  c #4F3922",
"#  c #5E3F23",
"$  c #5C3C25",
"%  c #643F24",
"&  c #6D4016",
"*  c #79481F",
"=  c #4E473F",
"-  c #524131",
";  c #57493C",
":  c #6F4421",
">  c #62422B",
",  c #6C4B28",
"<  c #6D482D",
"1  c #7F5228",
"2  c #7A552B",
"3  c #6E4F33",
"4  c #675139",
"5  c #68523A",
"6  c #454543",
"7  c gray27",
"8  c #4E4643",
"9  c #4A4945",
"0  c #4C4B47",
"q  c #484649",
"w  c #494A4E",
"e  c #524B43",
"r  c #514C48",
"t  c #554D4A",
"y  c #51504E",
"u  c #57524E",
"i  c #4F4D50",
"p  c #515352",
"a  c #535353",
"s  c #565251",
"d  c #555450",
"f  c #565553",
"g  c #5A5551",
"h  c #5E5955",
"j  c #55565A",
"k  c #585659",
"l  c #5D5958",
"z  c #5E5C5F",
"x  c #695443",
"c  c #6A5C4F",
"v  c #6D5C4C",
"b  c #715842",
"n  c #735E4D",
"m  c #625A57",
"M  c #6F6154",
"N  c #706255",
"B  c #7C6A5C",
"V  c #616362",
"C  c #646361",
"Z  c #666561",
"A  c #666465",
"S  c #6A686B",
"D  c #6C6B69",
"F  c #6B6C70",
"G  c #747579",
"H  c #79787D",
"J  c #7B7B7D",
"K  c #7E7C7D",
"L  c #855223",
"P  c #8E5D34",
"I  c #83613E",
"U  c #8F663A",
"Y  c #8F6441",
"T  c #9C754C",
"R  c #8B7055",
"E  c #8F7459",
"W  c #867466",
"Q  c #887662",
"!  c #82786E",
"~  c #8E7E6F",
"^  c #907E6A",
"/  c #96816C",
"(  c #9E8368",
")  c #9A846D",
"_  c #9C846C",
"`  c #8A827F",
"'  c #908071",
"]  c #9D8873",
"[  c #A2876C",
"{  c #A18971",
"}  c #A58F78",
"|  c #CBA479",
" . c #808183",
".. c #818284",
"X. c #828284",
"o. c #818286",
"O. c #898582",
"+. c #8F8681",
"@. c #88888A",
"#. c #968D88",
"$. c #979390",
"%. c #A79587",
"&. c #A0968A",
"*. c #A2988C",
"=. c #B3A08F",
"-. c #ADA399",
";. c #B4A294",
":. c #B8AA9D",
">. c #A3A3A1",
",. c #A5A5A3",
"<. c #A8A4A1",
"1. c #AEA6A3",
"2. c #B0ABA7",
"3. c #BEB0A3",
"4. c #BBB7B4",
"5. c #BDB9B8",
"6. c #D6B389",
"7. c #D3B28F",
"8. c #C2AF9E",
"9. c #D9B895",
"0. c #CAB5A0",
"q. c #D4B8A0",
"w. c #C5BFBF",
"e. c #E9C498",
"r. c #ECC79D",
"t. c #EDC89E",
"y. c #D6C1AC",
"u. c #DCC0A8",
"i. c #EFCCA4",
"p. c #EECCA7",
"a. c #F8CFA3",
"s. c #F9D3A6",
"d. c #F3D2AF",
"f. c #E4CEB7",
"g. c #E5CFB8",
"h. c #F0D1B2",
"j. c #F5D3B0",
"k. c #F7D6B3",
"l. c #E8DFD8",
"z. c #EEE5DE",
"x. c #FFFADD",
"c. c #FFF5E0",
"v. c #FFF7E6",
"b. c #FFF8E3",
"n. c #FFF9E4",
"m. c #FFFBE4",
"M. c #FFFBE6",
"N. c #FEF6EB",
"B. c #FFF9EA",
"V. c #FFFBEE",
"C. c #FFFDEF",
"Z. c #F0F1F3",
"A. c #FBF6F0",
"S. c #FFFBF0",
"D. c #FFF8F2",
"F. c #FEF9F3",
"G. c #FFFAF2",
"H. c #FFFAF3",
"J. c #FFFCF3",
"K. c #FFFBF5",
"L. c #FEFBF6",
"P. c #FFFDF4",
"I. c #FFFCF6",
"U. c #FFFDF6",
"Y. c #FFFDF7",
"T. c #FFFEF6",
"R. c #FFFFF6",
"E. c #FFFEF7",
"W. c #F7F8FA",
"Q. c #F7FBFA",
"!. c #FEFAFB",
"~. c #FFFAFB",
"^. c #FFFDF8",
"/. c #FFFEF8",
"(. c #FFFDFA",
"). c #FEFDFB",
"_. c #FFFEFA",
"`. c #FFFFFA",
"'. c #FFFEFB",
"]. c #FFFBFD",
"[. c #FBFDFC",
"{. c #FBFFFF",
"}. c gray99",
"|. c #FDFDFD",
" X c #FFFCFC",
".X c #FFFDFC",
"XX c #FFFCFD",
"oX c #FFFDFD",
"OX c #FCFEFD",
"+X c #FFFEFC",
"@X c #FFFFFD",
"#X c #FFFDFE",
"$X c #FDFFFE",
"%X c #FCFFFF",
"&X c #FEFEFE",
"*X c #FEFEFF",
"=X c #FFFEFF",
"-X c #FEFFFF",
";X c gray100",
/* pixels */
"%X%X%X%X^.G.B.c.n.v.K.^.%X%X%X%X",
"%X%X%X^.U.;.> < % $ %.U.%X%X^.%X",
"%X%X%XG.3.3 Y * P : # =.U.^.%X].",
"].%X^.J.x Y O L O 1 + . K.%X~.%X",
"%X].%XK.@ , T U   2 o X D.%X%X].",
"~.%X%X^.5 9.i.e.| 6.7.5 U.%X~.%X",
"].].%X^._ p.r.s.a.r.d.{ U.%X%X%X",
"%X%X%XN.^ R h.d.k.h.E Q G.].%X].",
"%X%XZ.,.8 *.c ~ ~ ; &.e >.W.%X%X",
"^.^.4.9 d $.g 2.1.u O.Z 0 <.K.U.",
"J.3.M -.r d l 5.w.s y m ! M :.J.",
"n.] 0.W +.J z q i k A m B y./ b.",
"x.[ u.n #.J H F w G S +.x 9._ b.",
"m.g.) v t X.X.X.j  .@.8 - } f.m.",
"U.U.N.z.D V a 6 6 7 p C z.J.U.U.",
"{.Q.%X^.^.%X%X^.^.%X%XQ.L.^.%X{."
};
